DataType=double
version=3
OpenSimVersion=4.5.2-2025-05-03-6a4c6ec41
endheader
time	q	q_dot	q_ddot	torque
7.509999999999884	-0.0009205344142185368	-0.05611477950344629	1.189803433657548	3
7.519999999999884	-0.001538683448620202	-0.06748985887004244	-1.129725811860382	-3
7.529999999999884	-0.002269782065446662	-0.07870009717387963	-1.111865418352526	-3
7.539999999999884	-0.003112044589123738	-0.08971811416645629	-1.091289380504684	-3
7.549999999999883	-0.004063413835026743	-0.1005169993606334	-1.068047987484713	-3
7.559999999999883	-0.005121566137399752	-0.1110703778922873	-1.042198053451813	-3
7.569999999999883	-0.006283917029641621	-0.1213524751055363	-1.013802781988413	-3
7.579999999999883	-0.007547627563403677	-0.131338179703723	-0.9829316148569645	-3
7.589999999999883	-0.00890961125137679	-0.1410031053105874	-0.9496600653247378	-3
7.599999999999882	-0.01036654161710264	-0.1503236502886818	-0.9140695363377279	-3
7.609999999999882	-0.01191486033362923	-0.1592770556650944	-0.8762471238655768	-3
7.619999999999882	-0.01355078593134827	-0.1678414610179802	-0.8362854057827486	-3
7.629999999999882	-0.0152703230539058	-0.1759959581812777	-0.7942822166968888	-3
7.639999999999882	-0.01706927223967292	-0.1837206426293355	-0.7503404091829968	-3
7.649999999999881	-0.01894324020490411	-0.1909966624080057	-0.7045676019313776	-3
7.659999999999881	-0.02088765060340264	-0.1978062644840909	-0.6570759153678272	-3
7.669999999999881	-0.02289775523626026	-0.2041328383908735	-0.607981695355627	-3
7.679999999999881	-0.02496864568404667	-0.2099609570538049	-0.5574052256400791	-3
7.68999999999988	-0.02709526533269943	-0.2152764146872966	-0.5054704297468959	-3
7.69999999999988	-0.02927242176331016	-0.2200662616609136	-0.4523045630950974	-3
7.70999999999988	-0.0314947994750254	-0.2243188362411168	-0.3980378961325013	-3
7.71999999999988	-0.03375697290938251	-0.2280237931230099	-0.3428033893467475	-3
7.72999999999988	-0.03605341974358933	-0.2311721286752847	-0.2867363610464094	-3
7.739999999999879	-0.03837853441953339	-0.2337562028306986	-0.2299741488445039	-3
7.749999999999879	-0.04072664187467717	-0.235769757563909	-0.1726557658099982	-3
7.759999999999879	-0.04309201144046278	-0.2372079319082949	-0.1149215522812144	-3
7.769999999999879	-0.04546887087341583	-0.2380672734734493	-0.05691282435788089	-3
7.779999999999879	-0.0478514204838064	-0.2383457464352879	0.001228479894432693	-3
7.789999999999878	-0.05023384732649633	-0.2380427359811133	0.0593601554829286	-3
7.799999999999878	-0.05261033941847741	-0.2371590492024491	0.1173400857201957	-3
7.809999999999878	-0.05497509994758636	-0.2356969124389423	0.1750265966038108	-3
7.819999999999878	-0.05732236143696695	-0.2336599650870678	0.2322788093044022	-3
7.829999999999878	-0.05964639983003916	-0.2310532498976828	0.2889569897385724	-3
7.839999999999877	-0.06194154846102639	-0.2278831997966148	0.3449228942241929	-3
7.849999999999877	-0.06420221187648338	-0.2241576212723622	0.4000401102426167	-3
7.859999999999877	-0.06642287947375639	-0.2198856743845818	0.454174391364926	-3
7.869999999999877	-0.06859813892289063	-0.2150778494562826	0.5071939854369624	-3
7.879999999999876	-0.07072268933917361	-0.2097459405214899	0.5589699551600452	-3
7.889999999999876	-0.07279135417426315	-0.2039030156085485	0.6093764902503395	-3
7.899999999999876	-0.0747990937946905	-0.1975633839471596	0.658291210409142	-3
7.909999999999876	-0.07674101771744755	-0.190742560194664	0.7055954583882231	-3
7.919999999999876	-0.07861239647335705	-0.1834572257839795	0.7511745824880053	-3
7.929999999999875	-0.08040867306998112	-0.1757251875019467	0.7949182078811464	-3
7.939999999999875	-0.08212547402694036	-0.1675653334126346	0.8367204962091626	-3
7.949999999999875	-0.08375861995768789	-0.1589975862454129	0.876480392954503	-3
7.959999999999875	-0.08530413567300496	-0.1500428543722963	0.9141018621441216	-3
7.969999999999875	-0.08675825978275092	-0.1407229805032507	0.9494941079926631	-3
7.979999999999874	-0.08811745377370626	-0.1310606882318147	0.9825717831430666	-3
7.989999999999874	-0.08937841054268682	-0.121079526566577	1.013255183209424	-3
7.999999999999874	-0.09053806236547729	-0.1108038125867785	1.041470427370699	-3
8.009999999999874	-0.09159358828352623	-0.100258572362619	1.067149624804147	-3
8.019999999999873	-0.09254242089176071	-0.08946948028277206	1.090231026783814	-3
8.029999999999873	-0.09338225251231191	-0.07846279693319537	1.110659164301935	-3
8.039999999999873	-0.0941110407403906	-0.06726530567259625	1.128384971099666	-3
8.049999999999873	-0.09472701335000998	-0.05590424805092332	1.143365892018124	-3
8.059999999999873	-0.09522867254872147	-0.0444072582180384	1.155565976601483	-3
8.069999999999872	-0.09561479857200358	-0.03280229647031616	1.164955957901055	-3
8.079999999999872	-0.09588445260942367	-0.02111758208335813	1.171513316443161	-3
8.089999999999872	-0.09603697905617606	-0.009381525579321924	1.175222329334605	-3
8.099999999999872	-0.09607200708508608	0.002377339422415737	1.176074104488133	-3
8.109999999999872	-0.09598945153565776	0.01413042462240227	1.174066599956848	-3
8.119999999999871	-0.09578951311823146	0.0258491555771157	1.169204628371878	-3
8.129999999999871	-0.09547267793280795	0.03750504020485686	1.161499846481995	-3
8.139999999999871	-0.09503971630358486	0.0490697371125583	1.150970729798219	-3
8.149999999999871	-0.09449168093174096	0.06051512359459437	1.137642532351156	-3
8.15999999999987	-0.09382990437049239	0.07181336315478154	1.12154723157453	-3
8.16999999999987	-0.09305599582793249	0.08293697240292841	1.102723458335763	-3
8.17999999999987	-0.09217183730465163	0.09385888717754828	1.081216412143887	-3
8.18999999999987	-0.09117957907461621	0.1045525277467087	1.057077761577258	-3
8.19999999999987	-0.09008163451926333	0.1149918629394898	1.030365529988633	-3
8.209999999999869	-0.08888067432624015	0.1251514730611891	1.00114396656385	-3
8.219999999999869	-0.08757962006568118	0.1350066114462814	0.9694834028325676	-3
8.229999999999869	-0.08618163715837136	0.1445332645042531	0.9354600947557181	-3
8.239999999999869	-0.08469012725158502	0.1537082101148272	0.8991560505444905	-3
8.249999999999869	-0.0831087200198171	0.1625090742308067	0.8606588443997795	-3
8.259999999999868	-0.08144126440903091	0.170914385548844	0.820061416399066	-3
8.269999999999868	-0.07969181934443141	0.1789036281109182	0.7774618587994182	-3
8.279999999999868	-0.07786464392313124	0.1864572917022099	0.7329631890704252	-3
8.289999999999868	-0.07596418711440296	0.1935569199144432	0.686673110019041	-3
8.299999999999867	-0.07399507699150183	0.2001851557476332	0.6387037574190337	-3
8.309999999999867	-0.07196210952029217	0.2063257846275683	0.5891714356105127	-3
8.319999999999867	-0.06987023693111294	0.2119637747212803	0.5381963415891586	-3
8.329999999999867	-0.06772455570146912	0.217085314438227	0.4859022781598081	-3
8.339999999999867	-0.06553029417822789	0.2216778470109327	0.4324163567840348	-3
8.349999999999866	-0.06329279986902948	0.2257301020554028	0.3778686908058129	-3
8.359999999999866	-0.06101752643358378	0.2292321240187354	0.3223920797923501	-3
8.369999999999866	-0.05871002040641218	0.232175297428979	0.2661216857781084	-3
8.379999999999866	-0.05637590768340318	0.2345523688704119	0.2091947022480961	-3
8.389999999999866	-0.05402087980527617	0.2363574656160025	0.1517500167410724	-3
8.399999999999865	-0.05165068007168534	0.2375861108578226	0.0939278679937114	-3
8.409999999999865	-0.04927108952024126	0.2382352354855809	0.03586949858240983	-3
8.419999999999865	-0.04688791280517794	0.2383031863731638	-0.02228319595018521	-3
8.429999999999865	-0.04450696401074403	0.237789731143072	-0.08038802047217641	-3
8.439999999999864	-0.0421340524346474	0.236696059388857	-0.1383028351125465	-3
8.449999999999864	-0.03977496837702942	0.235024780346032	-0.1958859105416845	-3
8.459999999999864	-0.0374354689704882	0.2327799170123935	-0.2529962826336858	-3
8.469999999999864	-0.03512126408660838	0.2299668967291803	-0.3094941054624216	-3
8.479999999999864	-0.03283800235428819	0.226592538244945	-0.3652410015904152	-3
8.489999999999863	-0.03059125732488439	0.2226650352943607	-0.4201004086229481	-3
